{
	"asset":{
		"generator":"Khronos glTF Blender I/O v4.1.63",
		"version":"2.0"
	},
	"extensionsUsed":[
		"KHR_materials_specular",
		"KHR_lights_punctual"
	],
	"extensionsRequired":[
		"KHR_lights_punctual"
	],
	"extensions":{
		"KHR_lights_punctual":{
			"lights":[
				{
					"color":[
						1,
						1,
						1
					],
					"intensity":6830,
					"type":"directional",
					"name":"Sun"
				}
			]
		}
	},
	"scene":0,
	"scenes":[
		{
			"extras":{
				"send2ue":{}
			},
			"name":"Scene",
			"nodes":[
				0,
				16,
				17
			]
		}
	],
	"nodes":[
		{
			"camera":0,
			"name":"Camera",
			"rotation":[
				-0.20997299253940582,
				0.3857799470424652,
				0.09062844514846802,
				0.8937962055206299
			],
			"translation":[
				7.358891487121582,
				4.958309173583984,
				6.925790786743164
			]
		},
		{
			"name":"CATRigRLegDigit12",
			"rotation":[
				-6.188679435581435e-08,
				1.5635459149621056e-08,
				0.3893464505672455,
				0.9210913777351379
			],
			"scale":[
				0.9999999403953552,
				0.9999998807907104,
				0.9999999403953552
			],
			"translation":[
				19.61001968383789,
				1.6741454601287842e-05,
				-1.3055705494480208e-06
			]
		},
		{
			"children":[
				1
			],
			"name":"CATRigRLegDigit11",
			"rotation":[
				0.0142856165766716,
				0.03798597678542137,
				0.3771495819091797,
				0.9252627491950989
			],
			"scale":[
				0.9999998807907104,
				0.9999998807907104,
				0.9999999403953552
			],
			"translation":[
				9.322976112365723,
				-7.488082408905029,
				-0.00949336588382721
			]
		},
		{
			"children":[
				2
			],
			"name":"CATRigRLegAnkle",
			"rotation":[
				-0.17941345274448395,
				0.001947762444615364,
				0.2708545923233032,
				0.9457509517669678
			],
			"scale":[
				1.0000001192092896,
				0.9999998807907104,
				1
			],
			"translation":[
				53.36764144897461,
				-9.059906005859375e-06,
				-9.5367431640625e-07
			]
		},
		{
			"children":[
				3
			],
			"name":"CATRigRLeg2",
			"rotation":[
				0.1210671067237854,
				-0.020421866327524185,
				-0.31130659580230713,
				0.9423449039459229
			],
			"scale":[
				1.000000238418579,
				0.9999999403953552,
				0.9999998211860657
			],
			"translation":[
				60.55927276611328,
				-4.875659942626953e-05,
				7.748603820800781e-07
			]
		},
		{
			"children":[
				4
			],
			"name":"CATRigRLeg1",
			"rotation":[
				-0.05179441347718239,
				0.997094988822937,
				-0.015212527476251125,
				0.05373546853661537
			],
			"scale":[
				0.9999998807907104,
				0.9999993443489075,
				0.9999998211860657
			],
			"translation":[
				1.3542638953367714e-05,
				-2.728971594478935e-06,
				-10.71414852142334
			]
		},
		{
			"name":"CATRigLLegDigit12",
			"rotation":[
				-4.471758074942045e-06,
				4.6770575863774866e-05,
				0.27119317650794983,
				0.962524950504303
			],
			"scale":[
				1.0000001192092896,
				1.0000001192092896,
				1
			],
			"translation":[
				19.226219177246094,
				2.375061740167439e-06,
				2.013053745031357e-06
			]
		},
		{
			"children":[
				6
			],
			"name":"CATRigLLegDigit11",
			"rotation":[
				-0.02270643599331379,
				-0.032767027616500854,
				0.5917185544967651,
				0.8051583170890808
			],
			"scale":[
				1.0000001192092896,
				0.9999997615814209,
				0.9999999403953552
			],
			"translation":[
				9.268393516540527,
				-7.013357639312744,
				0.0093001127243042
			]
		},
		{
			"children":[
				7
			],
			"name":"CATRigLLegAnkle",
			"rotation":[
				-0.06079590693116188,
				0.058998119086027145,
				0.12232460081577301,
				0.9888679385185242
			],
			"scale":[
				1.000000238418579,
				1,
				0.9999998807907104
			],
			"translation":[
				53.18265914916992,
				-1.1861324310302734e-05,
				0
			]
		},
		{
			"children":[
				8
			],
			"name":"CATRigLLeg2",
			"rotation":[
				0.007332813460379839,
				-0.019589673727750778,
				-0.16299310326576233,
				0.9864054918289185
			],
			"scale":[
				0.9999998211860657,
				1.000000238418579,
				0.9999998807907104
			],
			"translation":[
				60.70139694213867,
				-2.4437904357910156e-05,
				-6.9141387939453125e-06
			]
		},
		{
			"children":[
				9
			],
			"name":"CATRigLLeg1",
			"rotation":[
				-0.17483796179294586,
				-0.9845641851425171,
				-0.0032172631472349167,
				0.0073914178647100925
			],
			"scale":[
				1.0000001192092896,
				0.9999991655349731,
				1.000000238418579
			],
			"translation":[
				1.753458855091594e-05,
				-2.818378561642021e-06,
				10.71414852142334
			]
		},
		{
			"children":[
				5,
				10
			],
			"name":"CATRigHub001",
			"rotation":[
				0.4777144491672516,
				0.521333634853363,
				-0.47771450877189636,
				0.5213337540626526
			],
			"translation":[
				-0.5903244018554688,
				-1.383995771408081,
				-135.20704650878906
			]
		},
		{
			"name":"CATRigLLegPlatform",
			"rotation":[
				0.42420563101768494,
				0.565912663936615,
				-0.5716315507888794,
				0.4159684479236603
			],
			"scale":[
				1,
				1.0000001192092896,
				1
			],
			"translation":[
				39.05318832397461,
				-11.119009017944336,
				-8.433268547058105
			]
		},
		{
			"name":"CATRigRLegPlatform",
			"rotation":[
				0.5391368269920349,
				0.45752671360969543,
				-0.45239827036857605,
				0.543448805809021
			],
			"scale":[
				1,
				1,
				0.9999998807907104
			],
			"translation":[
				-36.96796417236328,
				14.506924629211426,
				-13.424095153808594
			]
		},
		{
			"name":"neutral_bone",
			"rotation":[
				-0.7071067690849304,
				0,
				0,
				0.7071067690849304
			]
		},
		{
			"extras":{
				"MaxHandle":4
			},
			"mesh":0,
			"name":"komutan_sep45_low_komando",
			"skin":0
		},
		{
			"children":[
				15,
				11,
				12,
				13,
				14
			],
			"name":"Armature",
			"rotation":[
				0.7071068286895752,
				0,
				0,
				0.7071068286895752
			],
			"scale":[
				0.02539999969303608,
				0.02539999969303608,
				0.02539999969303608
			]
		},
		{
			"extensions":{
				"KHR_lights_punctual":{
					"light":0
				}
			},
			"name":"Sun",
			"rotation":[
				-0.43912190198898315,
				0.8192967176437378,
				0.06331139802932739,
				0.3632031977176666
			]
		}
	],
	"cameras":[
		{
			"name":"Camera",
			"perspective":{
				"aspectRatio":1.7777777777777777,
				"yfov":0.39959652046304894,
				"zfar":100,
				"znear":0.10000000149011612
			},
			"type":"perspective"
		}
	],
	"animations":[
		{
			"channels":[
				{
					"sampler":0,
					"target":{
						"node":11,
						"path":"translation"
					}
				},
				{
					"sampler":1,
					"target":{
						"node":11,
						"path":"rotation"
					}
				},
				{
					"sampler":2,
					"target":{
						"node":11,
						"path":"scale"
					}
				},
				{
					"sampler":3,
					"target":{
						"node":5,
						"path":"translation"
					}
				},
				{
					"sampler":4,
					"target":{
						"node":5,
						"path":"rotation"
					}
				},
				{
					"sampler":5,
					"target":{
						"node":5,
						"path":"scale"
					}
				},
				{
					"sampler":6,
					"target":{
						"node":4,
						"path":"translation"
					}
				},
				{
					"sampler":7,
					"target":{
						"node":4,
						"path":"rotation"
					}
				},
				{
					"sampler":8,
					"target":{
						"node":4,
						"path":"scale"
					}
				},
				{
					"sampler":9,
					"target":{
						"node":3,
						"path":"translation"
					}
				},
				{
					"sampler":10,
					"target":{
						"node":3,
						"path":"rotation"
					}
				},
				{
					"sampler":11,
					"target":{
						"node":3,
						"path":"scale"
					}
				},
				{
					"sampler":12,
					"target":{
						"node":2,
						"path":"translation"
					}
				},
				{
					"sampler":13,
					"target":{
						"node":2,
						"path":"rotation"
					}
				},
				{
					"sampler":14,
					"target":{
						"node":2,
						"path":"scale"
					}
				},
				{
					"sampler":15,
					"target":{
						"node":1,
						"path":"translation"
					}
				},
				{
					"sampler":16,
					"target":{
						"node":1,
						"path":"rotation"
					}
				},
				{
					"sampler":17,
					"target":{
						"node":1,
						"path":"scale"
					}
				},
				{
					"sampler":18,
					"target":{
						"node":10,
						"path":"translation"
					}
				},
				{
					"sampler":19,
					"target":{
						"node":10,
						"path":"rotation"
					}
				},
				{
					"sampler":20,
					"target":{
						"node":10,
						"path":"scale"
					}
				},
				{
					"sampler":21,
					"target":{
						"node":9,
						"path":"translation"
					}
				},
				{
					"sampler":22,
					"target":{
						"node":9,
						"path":"rotation"
					}
				},
				{
					"sampler":23,
					"target":{
						"node":9,
						"path":"scale"
					}
				},
				{
					"sampler":24,
					"target":{
						"node":8,
						"path":"translation"
					}
				},
				{
					"sampler":25,
					"target":{
						"node":8,
						"path":"rotation"
					}
				},
				{
					"sampler":26,
					"target":{
						"node":8,
						"path":"scale"
					}
				},
				{
					"sampler":27,
					"target":{
						"node":7,
						"path":"translation"
					}
				},
				{
					"sampler":28,
					"target":{
						"node":7,
						"path":"rotation"
					}
				},
				{
					"sampler":29,
					"target":{
						"node":7,
						"path":"scale"
					}
				},
				{
					"sampler":30,
					"target":{
						"node":6,
						"path":"translation"
					}
				},
				{
					"sampler":31,
					"target":{
						"node":6,
						"path":"rotation"
					}
				},
				{
					"sampler":32,
					"target":{
						"node":6,
						"path":"scale"
					}
				},
				{
					"sampler":33,
					"target":{
						"node":12,
						"path":"translation"
					}
				},
				{
					"sampler":34,
					"target":{
						"node":12,
						"path":"rotation"
					}
				},
				{
					"sampler":35,
					"target":{
						"node":12,
						"path":"scale"
					}
				},
				{
					"sampler":36,
					"target":{
						"node":13,
						"path":"translation"
					}
				},
				{
					"sampler":37,
					"target":{
						"node":13,
						"path":"rotation"
					}
				},
				{
					"sampler":38,
					"target":{
						"node":13,
						"path":"scale"
					}
				}
			],
			"name":"Armature|Take 001|BaseLayer",
			"samplers":[
				{
					"input":7,
					"interpolation":"LINEAR",
					"output":8
				},
				{
					"input":7,
					"interpolation":"LINEAR",
					"output":9
				},
				{
					"input":10,
					"interpolation":"LINEAR",
					"output":11
				},
				{
					"input":10,
					"interpolation":"LINEAR",
					"output":12
				},
				{
					"input":7,
					"interpolation":"LINEAR",
					"output":13
				},
				{
					"input":10,
					"interpolation":"LINEAR",
					"output":14
				},
				{
					"input":10,
					"interpolation":"LINEAR",
					"output":15
				},
				{
					"input":7,
					"interpolation":"LINEAR",
					"output":16
				},
				{
					"input":10,
					"interpolation":"LINEAR",
					"output":17
				},
				{
					"input":10,
					"interpolation":"LINEAR",
					"output":18
				},
				{
					"input":7,
					"interpolation":"LINEAR",
					"output":19
				},
				{
					"input":10,
					"interpolation":"LINEAR",
					"output":20
				},
				{
					"input":10,
					"interpolation":"LINEAR",
					"output":21
				},
				{
					"input":7,
					"interpolation":"LINEAR",
					"output":22
				},
				{
					"input":10,
					"interpolation":"LINEAR",
					"output":23
				},
				{
					"input":10,
					"interpolation":"LINEAR",
					"output":24
				},
				{
					"input":7,
					"interpolation":"LINEAR",
					"output":25
				},
				{
					"input":10,
					"interpolation":"LINEAR",
					"output":26
				},
				{
					"input":10,
					"interpolation":"LINEAR",
					"output":27
				},
				{
					"input":7,
					"interpolation":"LINEAR",
					"output":28
				},
				{
					"input":10,
					"interpolation":"LINEAR",
					"output":29
				},
				{
					"input":10,
					"interpolation":"LINEAR",
					"output":30
				},
				{
					"input":7,
					"interpolation":"LINEAR",
					"output":31
				},
				{
					"input":10,
					"interpolation":"LINEAR",
					"output":32
				},
				{
					"input":10,
					"interpolation":"LINEAR",
					"output":33
				},
				{
					"input":7,
					"interpolation":"LINEAR",
					"output":34
				},
				{
					"input":10,
					"interpolation":"LINEAR",
					"output":35
				},
				{
					"input":10,
					"interpolation":"LINEAR",
					"output":36
				},
				{
					"input":7,
					"interpolation":"LINEAR",
					"output":37
				},
				{
					"input":10,
					"interpolation":"LINEAR",
					"output":38
				},
				{
					"input":10,
					"interpolation":"LINEAR",
					"output":39
				},
				{
					"input":7,
					"interpolation":"LINEAR",
					"output":40
				},
				{
					"input":10,
					"interpolation":"LINEAR",
					"output":41
				},
				{
					"input":7,
					"interpolation":"LINEAR",
					"output":42
				},
				{
					"input":7,
					"interpolation":"LINEAR",
					"output":43
				},
				{
					"input":10,
					"interpolation":"LINEAR",
					"output":44
				},
				{
					"input":7,
					"interpolation":"LINEAR",
					"output":45
				},
				{
					"input":7,
					"interpolation":"LINEAR",
					"output":46
				},
				{
					"input":10,
					"interpolation":"STEP",
					"output":47
				}
			]
		}
	],
	"materials":[
		{
			"doubleSided":true,
			"extensions":{
				"KHR_materials_specular":{
					"specularFactor":0
				}
			},
			"name":"Material #25",
			"pbrMetallicRoughness":{
				"baseColorTexture":{
					"index":0
				},
				"roughnessFactor":0.858578622341156
			}
		}
	],
	"meshes":[
		{
			"name":"Mesh",
			"primitives":[
				{
					"attributes":{
						"POSITION":0,
						"NORMAL":1,
						"TEXCOORD_0":2,
						"JOINTS_0":3,
						"WEIGHTS_0":4
					},
					"indices":5,
					"material":0
				}
			]
		}
	],
	"textures":[
		{
			"sampler":0,
			"source":0
		}
	],
	"images":[
		{
			"mimeType":"image/jpeg",
			"name":"diffuse",
			"uri":"textures/diffuse.jpg"
		}
	],
	"skins":[
		{
			"inverseBindMatrices":6,
			"joints":[
				11,
				5,
				4,
				3,
				2,
				1,
				10,
				9,
				8,
				7,
				6,
				12,
				13,
				14
			],
			"name":"Armature"
		}
	],
	"accessors":[
		{
			"bufferView":0,
			"componentType":5126,
			"count":1334,
			"max":[
				0.7631027698516846,
				3.7041897773742676,
				0.8269754648208618
			],
			"min":[
				-0.5919395685195923,
				0.007497377693653107,
				-0.8957698345184326
			],
			"type":"VEC3"
		},
		{
			"bufferView":1,
			"componentType":5126,
			"count":1334,
			"type":"VEC3"
		},
		{
			"bufferView":2,
			"componentType":5126,
			"count":1334,
			"type":"VEC2"
		},
		{
			"bufferView":3,
			"componentType":5121,
			"count":1334,
			"type":"VEC4"
		},
		{
			"bufferView":4,
			"componentType":5126,
			"count":1334,
			"type":"VEC4"
		},
		{
			"bufferView":5,
			"componentType":5123,
			"count":4938,
			"type":"SCALAR"
		},
		{
			"bufferView":6,
			"componentType":5126,
			"count":14,
			"type":"MAT4"
		},
		{
			"bufferView":7,
			"componentType":5126,
			"count":91,
			"max":[
				3.033333333333333
			],
			"min":[
				0.03333333333333333
			],
			"type":"SCALAR"
		},
		{
			"bufferView":8,
			"componentType":5126,
			"count":91,
			"type":"VEC3"
		},
		{
			"bufferView":9,
			"componentType":5126,
			"count":91,
			"type":"VEC4"
		},
		{
			"bufferView":10,
			"componentType":5126,
			"count":2,
			"max":[
				3.033333333333333
			],
			"min":[
				0.03333333333333333
			],
			"type":"SCALAR"
		},
		{
			"bufferView":11,
			"componentType":5126,
			"count":2,
			"type":"VEC3"
		},
		{
			"bufferView":12,
			"componentType":5126,
			"count":2,
			"type":"VEC3"
		},
		{
			"bufferView":13,
			"componentType":5126,
			"count":91,
			"type":"VEC4"
		},
		{
			"bufferView":14,
			"componentType":5126,
			"count":2,
			"type":"VEC3"
		},
		{
			"bufferView":15,
			"componentType":5126,
			"count":2,
			"type":"VEC3"
		},
		{
			"bufferView":16,
			"componentType":5126,
			"count":91,
			"type":"VEC4"
		},
		{
			"bufferView":17,
			"componentType":5126,
			"count":2,
			"type":"VEC3"
		},
		{
			"bufferView":18,
			"componentType":5126,
			"count":2,
			"type":"VEC3"
		},
		{
			"bufferView":19,
			"componentType":5126,
			"count":91,
			"type":"VEC4"
		},
		{
			"bufferView":20,
			"componentType":5126,
			"count":2,
			"type":"VEC3"
		},
		{
			"bufferView":21,
			"componentType":5126,
			"count":2,
			"type":"VEC3"
		},
		{
			"bufferView":22,
			"componentType":5126,
			"count":91,
			"type":"VEC4"
		},
		{
			"bufferView":23,
			"componentType":5126,
			"count":2,
			"type":"VEC3"
		},
		{
			"bufferView":24,
			"componentType":5126,
			"count":2,
			"type":"VEC3"
		},
		{
			"bufferView":25,
			"componentType":5126,
			"count":91,
			"type":"VEC4"
		},
		{
			"bufferView":26,
			"componentType":5126,
			"count":2,
			"type":"VEC3"
		},
		{
			"bufferView":27,
			"componentType":5126,
			"count":2,
			"type":"VEC3"
		},
		{
			"bufferView":28,
			"componentType":5126,
			"count":91,
			"type":"VEC4"
		},
		{
			"bufferView":29,
			"componentType":5126,
			"count":2,
			"type":"VEC3"
		},
		{
			"bufferView":30,
			"componentType":5126,
			"count":2,
			"type":"VEC3"
		},
		{
			"bufferView":31,
			"componentType":5126,
			"count":91,
			"type":"VEC4"
		},
		{
			"bufferView":32,
			"componentType":5126,
			"count":2,
			"type":"VEC3"
		},
		{
			"bufferView":33,
			"componentType":5126,
			"count":2,
			"type":"VEC3"
		},
		{
			"bufferView":34,
			"componentType":5126,
			"count":91,
			"type":"VEC4"
		},
		{
			"bufferView":35,
			"componentType":5126,
			"count":2,
			"type":"VEC3"
		},
		{
			"bufferView":36,
			"componentType":5126,
			"count":2,
			"type":"VEC3"
		},
		{
			"bufferView":37,
			"componentType":5126,
			"count":91,
			"type":"VEC4"
		},
		{
			"bufferView":38,
			"componentType":5126,
			"count":2,
			"type":"VEC3"
		},
		{
			"bufferView":39,
			"componentType":5126,
			"count":2,
			"type":"VEC3"
		},
		{
			"bufferView":40,
			"componentType":5126,
			"count":91,
			"type":"VEC4"
		},
		{
			"bufferView":41,
			"componentType":5126,
			"count":2,
			"type":"VEC3"
		},
		{
			"bufferView":42,
			"componentType":5126,
			"count":91,
			"type":"VEC3"
		},
		{
			"bufferView":43,
			"componentType":5126,
			"count":91,
			"type":"VEC4"
		},
		{
			"bufferView":44,
			"componentType":5126,
			"count":2,
			"type":"VEC3"
		},
		{
			"bufferView":45,
			"componentType":5126,
			"count":91,
			"type":"VEC3"
		},
		{
			"bufferView":46,
			"componentType":5126,
			"count":91,
			"type":"VEC4"
		},
		{
			"bufferView":47,
			"componentType":5126,
			"count":2,
			"type":"VEC3"
		}
	],
	"bufferViews":[
		{
			"buffer":0,
			"byteLength":16008,
			"byteOffset":0,
			"target":34962
		},
		{
			"buffer":0,
			"byteLength":16008,
			"byteOffset":16008,
			"target":34962
		},
		{
			"buffer":0,
			"byteLength":10672,
			"byteOffset":32016,
			"target":34962
		},
		{
			"buffer":0,
			"byteLength":5336,
			"byteOffset":42688,
			"target":34962
		},
		{
			"buffer":0,
			"byteLength":21344,
			"byteOffset":48024,
			"target":34962
		},
		{
			"buffer":0,
			"byteLength":9876,
			"byteOffset":69368,
			"target":34963
		},
		{
			"buffer":0,
			"byteLength":896,
			"byteOffset":79244
		},
		{
			"buffer":0,
			"byteLength":364,
			"byteOffset":80140
		},
		{
			"buffer":0,
			"byteLength":1092,
			"byteOffset":80504
		},
		{
			"buffer":0,
			"byteLength":1456,
			"byteOffset":81596
		},
		{
			"buffer":0,
			"byteLength":8,
			"byteOffset":83052
		},
		{
			"buffer":0,
			"byteLength":24,
			"byteOffset":83060
		},
		{
			"buffer":0,
			"byteLength":24,
			"byteOffset":83084
		},
		{
			"buffer":0,
			"byteLength":1456,
			"byteOffset":83108
		},
		{
			"buffer":0,
			"byteLength":24,
			"byteOffset":84564
		},
		{
			"buffer":0,
			"byteLength":24,
			"byteOffset":84588
		},
		{
			"buffer":0,
			"byteLength":1456,
			"byteOffset":84612
		},
		{
			"buffer":0,
			"byteLength":24,
			"byteOffset":86068
		},
		{
			"buffer":0,
			"byteLength":24,
			"byteOffset":86092
		},
		{
			"buffer":0,
			"byteLength":1456,
			"byteOffset":86116
		},
		{
			"buffer":0,
			"byteLength":24,
			"byteOffset":87572
		},
		{
			"buffer":0,
			"byteLength":24,
			"byteOffset":87596
		},
		{
			"buffer":0,
			"byteLength":1456,
			"byteOffset":87620
		},
		{
			"buffer":0,
			"byteLength":24,
			"byteOffset":89076
		},
		{
			"buffer":0,
			"byteLength":24,
			"byteOffset":89100
		},
		{
			"buffer":0,
			"byteLength":1456,
			"byteOffset":89124
		},
		{
			"buffer":0,
			"byteLength":24,
			"byteOffset":90580
		},
		{
			"buffer":0,
			"byteLength":24,
			"byteOffset":90604
		},
		{
			"buffer":0,
			"byteLength":1456,
			"byteOffset":90628
		},
		{
			"buffer":0,
			"byteLength":24,
			"byteOffset":92084
		},
		{
			"buffer":0,
			"byteLength":24,
			"byteOffset":92108
		},
		{
			"buffer":0,
			"byteLength":1456,
			"byteOffset":92132
		},
		{
			"buffer":0,
			"byteLength":24,
			"byteOffset":93588
		},
		{
			"buffer":0,
			"byteLength":24,
			"byteOffset":93612
		},
		{
			"buffer":0,
			"byteLength":1456,
			"byteOffset":93636
		},
		{
			"buffer":0,
			"byteLength":24,
			"byteOffset":95092
		},
		{
			"buffer":0,
			"byteLength":24,
			"byteOffset":95116
		},
		{
			"buffer":0,
			"byteLength":1456,
			"byteOffset":95140
		},
		{
			"buffer":0,
			"byteLength":24,
			"byteOffset":96596
		},
		{
			"buffer":0,
			"byteLength":24,
			"byteOffset":96620
		},
		{
			"buffer":0,
			"byteLength":1456,
			"byteOffset":96644
		},
		{
			"buffer":0,
			"byteLength":24,
			"byteOffset":98100
		},
		{
			"buffer":0,
			"byteLength":1092,
			"byteOffset":98124
		},
		{
			"buffer":0,
			"byteLength":1456,
			"byteOffset":99216
		},
		{
			"buffer":0,
			"byteLength":24,
			"byteOffset":100672
		},
		{
			"buffer":0,
			"byteLength":1092,
			"byteOffset":100696
		},
		{
			"buffer":0,
			"byteLength":1456,
			"byteOffset":101788
		},
		{
			"buffer":0,
			"byteLength":24,
			"byteOffset":103244
		}
	],
	"samplers":[
		{
			"magFilter":9729,
			"minFilter":9987
		}
	],
	"buffers":[
		{
			"byteLength":103268,
			"uri":"anim.bin"
		}
	]
}
