{
	"asset":{
		"generator":"Khronos glTF Blender I/O v4.1.63",
		"version":"2.0"
	},
	"extensionsUsed":[
		"KHR_materials_specular",
		"KHR_lights_punctual"
	],
	"extensionsRequired":[
		"KHR_lights_punctual"
	],
	"extensions":{
		"KHR_lights_punctual":{
			"lights":[
				{
					"color":[
						1,
						1,
						1
					],
					"intensity":27175.70653294113,
					"spot":{
						"innerConeAngle":0.4928209399067516,
						"outerConeAngle":0.6709122061729431
					},
					"type":"spot",
					"name":"Spot"
				}
			]
		}
	},
	"scene":0,
	"scenes":[
		{
			"extras":{
				"send2ue":{}
			},
			"name":"Scene",
			"nodes":[
				0,
				16,
				17,
				18
			]
		}
	],
	"nodes":[
		{
			"camera":0,
			"name":"Camera",
			"rotation":[
				-0.20997299253940582,
				0.3857799470424652,
				0.09062844514846802,
				0.8937962055206299
			],
			"translation":[
				7.358891487121582,
				4.958309173583984,
				6.925790786743164
			]
		},
		{
			"name":"CATRigRLegDigit12",
			"rotation":[
				-4.5317367636243944e-08,
				1.4656959201886366e-08,
				0.3893463909626007,
				0.9210914373397827
			],
			"scale":[
				0.9999999403953552,
				0.9999998211860657,
				0.9999999403953552
			],
			"translation":[
				19.610013961791992,
				-7.450580596923828e-08,
				-4.474488378036767e-06
			]
		},
		{
			"children":[
				1
			],
			"name":"CATRigRLegDigit11",
			"rotation":[
				0.014285609126091003,
				0.03798597306013107,
				0.3771495521068573,
				0.9252628087997437
			],
			"scale":[
				0.9999999403953552,
				1,
				0.9999999403953552
			],
			"translation":[
				9.322972297668457,
				-7.488098621368408,
				-0.009489133954048157
			]
		},
		{
			"children":[
				2
			],
			"name":"CATRigRLegAnkle",
			"rotation":[
				-0.17941340804100037,
				0.0019476977176964283,
				0.2708548307418823,
				0.945750892162323
			],
			"scale":[
				1.0000001192092896,
				1,
				1.0000001192092896
			],
			"translation":[
				53.367652893066406,
				2.5272369384765625e-05,
				-6.67572021484375e-06
			]
		},
		{
			"children":[
				3
			],
			"name":"CATRigRLeg2",
			"rotation":[
				0.1210670992732048,
				-0.020421883091330528,
				-0.3113066554069519,
				0.9423449039459229
			],
			"scale":[
				1.000000238418579,
				0.9999999403953552,
				0.9999998211860657
			],
			"translation":[
				60.55931091308594,
				-9.059906005859375e-06,
				-9.5367431640625e-07
			]
		},
		{
			"children":[
				4
			],
			"name":"CATRigRLeg1",
			"rotation":[
				-0.051794424653053284,
				0.997094988822937,
				-0.015212533995509148,
				0.053735483437776566
			],
			"scale":[
				0.9999998807907104,
				0.9999999403953552,
				0.9999999403953552
			],
			"translation":[
				1.3084943020658102e-05,
				-3.897207989211893e-06,
				-10.714149475097656
			]
		},
		{
			"name":"CATRigLLegDigit12",
			"rotation":[
				-4.459552656044252e-06,
				4.677078322856687e-05,
				0.27119317650794983,
				0.962524950504303
			],
			"scale":[
				1.0000001192092896,
				1.0000001192092896,
				1
			],
			"translation":[
				19.226219177246094,
				-7.478229235857725e-08,
				3.1418167054653168e-06
			]
		},
		{
			"children":[
				6
			],
			"name":"CATRigLLegDigit11",
			"rotation":[
				-0.022706439718604088,
				-0.032767023891210556,
				0.5917187929153442,
				0.8051581978797913
			],
			"scale":[
				1.000000238418579,
				0.9999998211860657,
				1
			],
			"translation":[
				9.268400192260742,
				-7.013356685638428,
				0.009302139282226562
			]
		},
		{
			"children":[
				7
			],
			"name":"CATRigLLegAnkle",
			"rotation":[
				-0.060795899480581284,
				0.05899811163544655,
				0.12232443690299988,
				0.9888679385185242
			],
			"scale":[
				1.0000004768371582,
				1,
				0.9999999403953552
			],
			"translation":[
				53.18266296386719,
				4.76837158203125e-07,
				-4.76837158203125e-06
			]
		},
		{
			"children":[
				8
			],
			"name":"CATRigLLeg2",
			"rotation":[
				0.007332794833928347,
				-0.01958967000246048,
				-0.16299308836460114,
				0.9864054918289185
			],
			"scale":[
				0.9999997019767761,
				1.0000003576278687,
				0.9999998807907104
			],
			"translation":[
				60.70142364501953,
				-4.947185516357422e-06,
				-7.152557373046875e-06
			]
		},
		{
			"children":[
				9
			],
			"name":"CATRigLLeg1",
			"rotation":[
				-0.17483796179294586,
				-0.9845642447471619,
				-0.0032172470819205046,
				0.007391414605081081
			],
			"scale":[
				1.000000238418579,
				0.999999463558197,
				1.0000003576278687
			],
			"translation":[
				1.812866685213521e-05,
				-3.628987087722635e-06,
				10.714152336120605
			]
		},
		{
			"children":[
				5,
				10
			],
			"name":"CATRigHub001",
			"rotation":[
				0.7064337730407715,
				0.7064337730407715,
				0.030843330547213554,
				0.030843494459986687
			],
			"scale":[
				1,
				0.9999998807907104,
				1
			],
			"translation":[
				-0.5903244614601135,
				135.20706176757812,
				-1.3840060234069824
			]
		},
		{
			"name":"CATRigLLegPlatform",
			"rotation":[
				-0.594092845916748,
				-0.8043652772903442,
				0.004043815191835165,
				0.0058245291002094746
			],
			"scale":[
				1,
				1.0000001192092896,
				1
			],
			"translation":[
				39.053192138671875,
				8.433268547058105,
				-11.119009971618652
			]
		},
		{
			"name":"CATRigRLegPlatform",
			"rotation":[
				0.7655036449432373,
				0.6434141397476196,
				0.0036263030488044024,
				0.003049044404178858
			],
			"scale":[
				1,
				0.9999999403953552,
				1
			],
			"translation":[
				-36.96796798706055,
				13.424098014831543,
				14.506925582885742
			]
		},
		{
			"name":"neutral_bone",
			"rotation":[
				-0.7071067690849304,
				0,
				0,
				0.7071067690849304
			]
		},
		{
			"extras":{
				"MaxHandle":4
			},
			"mesh":0,
			"name":"komutan_sep45_low_komando",
			"skin":0
		},
		{
			"children":[
				15,
				11,
				12,
				13,
				14
			],
			"name":"Armature",
			"scale":[
				0.02539999969303608,
				0.02539999969303608,
				0.02539999969303608
			]
		},
		{
			"mesh":1,
			"name":"Plane",
			"scale":[
				5,
				5,
				5
			]
		},
		{
			"extensions":{
				"KHR_lights_punctual":{
					"light":0
				}
			},
			"name":"Spot",
			"rotation":[
				-0.7736536860466003,
				0.3122580051422119,
				-0.06222103536128998,
				0.5477989912033081
			],
			"translation":[
				2.5284156799316406,
				5.6663665771484375,
				-1.969428539276123
			]
		}
	],
	"cameras":[
		{
			"name":"Camera",
			"perspective":{
				"aspectRatio":1.7777777777777777,
				"yfov":0.39959652046304894,
				"zfar":100,
				"znear":0.10000000149011612
			},
			"type":"perspective"
		}
	],
	"animations":[
		{
			"channels":[
				{
					"sampler":0,
					"target":{
						"node":11,
						"path":"translation"
					}
				},
				{
					"sampler":1,
					"target":{
						"node":11,
						"path":"rotation"
					}
				},
				{
					"sampler":2,
					"target":{
						"node":11,
						"path":"scale"
					}
				},
				{
					"sampler":3,
					"target":{
						"node":5,
						"path":"translation"
					}
				},
				{
					"sampler":4,
					"target":{
						"node":5,
						"path":"rotation"
					}
				},
				{
					"sampler":5,
					"target":{
						"node":5,
						"path":"scale"
					}
				},
				{
					"sampler":6,
					"target":{
						"node":4,
						"path":"translation"
					}
				},
				{
					"sampler":7,
					"target":{
						"node":4,
						"path":"rotation"
					}
				},
				{
					"sampler":8,
					"target":{
						"node":4,
						"path":"scale"
					}
				},
				{
					"sampler":9,
					"target":{
						"node":3,
						"path":"translation"
					}
				},
				{
					"sampler":10,
					"target":{
						"node":3,
						"path":"rotation"
					}
				},
				{
					"sampler":11,
					"target":{
						"node":3,
						"path":"scale"
					}
				},
				{
					"sampler":12,
					"target":{
						"node":2,
						"path":"translation"
					}
				},
				{
					"sampler":13,
					"target":{
						"node":2,
						"path":"rotation"
					}
				},
				{
					"sampler":14,
					"target":{
						"node":2,
						"path":"scale"
					}
				},
				{
					"sampler":15,
					"target":{
						"node":1,
						"path":"translation"
					}
				},
				{
					"sampler":16,
					"target":{
						"node":1,
						"path":"rotation"
					}
				},
				{
					"sampler":17,
					"target":{
						"node":1,
						"path":"scale"
					}
				},
				{
					"sampler":18,
					"target":{
						"node":10,
						"path":"translation"
					}
				},
				{
					"sampler":19,
					"target":{
						"node":10,
						"path":"rotation"
					}
				},
				{
					"sampler":20,
					"target":{
						"node":10,
						"path":"scale"
					}
				},
				{
					"sampler":21,
					"target":{
						"node":9,
						"path":"translation"
					}
				},
				{
					"sampler":22,
					"target":{
						"node":9,
						"path":"rotation"
					}
				},
				{
					"sampler":23,
					"target":{
						"node":9,
						"path":"scale"
					}
				},
				{
					"sampler":24,
					"target":{
						"node":8,
						"path":"translation"
					}
				},
				{
					"sampler":25,
					"target":{
						"node":8,
						"path":"rotation"
					}
				},
				{
					"sampler":26,
					"target":{
						"node":8,
						"path":"scale"
					}
				},
				{
					"sampler":27,
					"target":{
						"node":7,
						"path":"translation"
					}
				},
				{
					"sampler":28,
					"target":{
						"node":7,
						"path":"rotation"
					}
				},
				{
					"sampler":29,
					"target":{
						"node":7,
						"path":"scale"
					}
				},
				{
					"sampler":30,
					"target":{
						"node":6,
						"path":"translation"
					}
				},
				{
					"sampler":31,
					"target":{
						"node":6,
						"path":"rotation"
					}
				},
				{
					"sampler":32,
					"target":{
						"node":6,
						"path":"scale"
					}
				},
				{
					"sampler":33,
					"target":{
						"node":12,
						"path":"translation"
					}
				},
				{
					"sampler":34,
					"target":{
						"node":12,
						"path":"rotation"
					}
				},
				{
					"sampler":35,
					"target":{
						"node":12,
						"path":"scale"
					}
				},
				{
					"sampler":36,
					"target":{
						"node":13,
						"path":"translation"
					}
				},
				{
					"sampler":37,
					"target":{
						"node":13,
						"path":"rotation"
					}
				},
				{
					"sampler":38,
					"target":{
						"node":13,
						"path":"scale"
					}
				}
			],
			"name":"Armature|Take 001|BaseLayer",
			"samplers":[
				{
					"input":11,
					"interpolation":"LINEAR",
					"output":12
				},
				{
					"input":11,
					"interpolation":"LINEAR",
					"output":13
				},
				{
					"input":14,
					"interpolation":"LINEAR",
					"output":15
				},
				{
					"input":14,
					"interpolation":"LINEAR",
					"output":16
				},
				{
					"input":11,
					"interpolation":"LINEAR",
					"output":17
				},
				{
					"input":14,
					"interpolation":"LINEAR",
					"output":18
				},
				{
					"input":14,
					"interpolation":"LINEAR",
					"output":19
				},
				{
					"input":11,
					"interpolation":"LINEAR",
					"output":20
				},
				{
					"input":14,
					"interpolation":"LINEAR",
					"output":21
				},
				{
					"input":14,
					"interpolation":"LINEAR",
					"output":22
				},
				{
					"input":11,
					"interpolation":"LINEAR",
					"output":23
				},
				{
					"input":14,
					"interpolation":"LINEAR",
					"output":24
				},
				{
					"input":14,
					"interpolation":"LINEAR",
					"output":25
				},
				{
					"input":11,
					"interpolation":"LINEAR",
					"output":26
				},
				{
					"input":14,
					"interpolation":"LINEAR",
					"output":27
				},
				{
					"input":14,
					"interpolation":"LINEAR",
					"output":28
				},
				{
					"input":11,
					"interpolation":"LINEAR",
					"output":29
				},
				{
					"input":14,
					"interpolation":"LINEAR",
					"output":30
				},
				{
					"input":14,
					"interpolation":"LINEAR",
					"output":31
				},
				{
					"input":11,
					"interpolation":"LINEAR",
					"output":32
				},
				{
					"input":14,
					"interpolation":"LINEAR",
					"output":33
				},
				{
					"input":14,
					"interpolation":"LINEAR",
					"output":34
				},
				{
					"input":11,
					"interpolation":"LINEAR",
					"output":35
				},
				{
					"input":14,
					"interpolation":"LINEAR",
					"output":36
				},
				{
					"input":14,
					"interpolation":"LINEAR",
					"output":37
				},
				{
					"input":11,
					"interpolation":"LINEAR",
					"output":38
				},
				{
					"input":14,
					"interpolation":"LINEAR",
					"output":39
				},
				{
					"input":14,
					"interpolation":"LINEAR",
					"output":40
				},
				{
					"input":11,
					"interpolation":"LINEAR",
					"output":41
				},
				{
					"input":14,
					"interpolation":"LINEAR",
					"output":42
				},
				{
					"input":14,
					"interpolation":"LINEAR",
					"output":43
				},
				{
					"input":11,
					"interpolation":"LINEAR",
					"output":44
				},
				{
					"input":14,
					"interpolation":"STEP",
					"output":45
				},
				{
					"input":11,
					"interpolation":"LINEAR",
					"output":46
				},
				{
					"input":11,
					"interpolation":"LINEAR",
					"output":47
				},
				{
					"input":14,
					"interpolation":"STEP",
					"output":48
				},
				{
					"input":11,
					"interpolation":"LINEAR",
					"output":49
				},
				{
					"input":11,
					"interpolation":"LINEAR",
					"output":50
				},
				{
					"input":14,
					"interpolation":"STEP",
					"output":51
				}
			]
		}
	],
	"materials":[
		{
			"doubleSided":true,
			"extensions":{
				"KHR_materials_specular":{
					"specularFactor":0
				}
			},
			"name":"Material #25",
			"pbrMetallicRoughness":{
				"baseColorTexture":{
					"index":0
				},
				"roughnessFactor":0.858578622341156
			}
		}
	],
	"meshes":[
		{
			"name":"Mesh",
			"primitives":[
				{
					"attributes":{
						"POSITION":0,
						"NORMAL":1,
						"TEXCOORD_0":2,
						"JOINTS_0":3,
						"WEIGHTS_0":4
					},
					"indices":5,
					"material":0
				}
			]
		},
		{
			"name":"Plane",
			"primitives":[
				{
					"attributes":{
						"POSITION":7,
						"NORMAL":8,
						"TEXCOORD_0":9
					},
					"indices":10
				}
			]
		}
	],
	"textures":[
		{
			"sampler":0,
			"source":0
		}
	],
	"images":[
		{
			"mimeType":"image/jpeg",
			"name":"diffuse",
			"uri":"textures/diffuse.jpg"
		}
	],
	"skins":[
		{
			"inverseBindMatrices":6,
			"joints":[
				11,
				5,
				4,
				3,
				2,
				1,
				10,
				9,
				8,
				7,
				6,
				12,
				13,
				14
			],
			"name":"Armature"
		}
	],
	"accessors":[
		{
			"bufferView":0,
			"componentType":5126,
			"count":1334,
			"max":[
				0.7631028890609741,
				3.704190492630005,
				0.8269754648208618
			],
			"min":[
				-0.5919396877288818,
				0.007497307378798723,
				-0.8957700729370117
			],
			"type":"VEC3"
		},
		{
			"bufferView":1,
			"componentType":5126,
			"count":1334,
			"type":"VEC3"
		},
		{
			"bufferView":2,
			"componentType":5126,
			"count":1334,
			"type":"VEC2"
		},
		{
			"bufferView":3,
			"componentType":5121,
			"count":1334,
			"type":"VEC4"
		},
		{
			"bufferView":4,
			"componentType":5126,
			"count":1334,
			"type":"VEC4"
		},
		{
			"bufferView":5,
			"componentType":5123,
			"count":4938,
			"type":"SCALAR"
		},
		{
			"bufferView":6,
			"componentType":5126,
			"count":14,
			"type":"MAT4"
		},
		{
			"bufferView":7,
			"componentType":5126,
			"count":4,
			"max":[
				1,
				0,
				1
			],
			"min":[
				-1,
				0,
				-1
			],
			"type":"VEC3"
		},
		{
			"bufferView":8,
			"componentType":5126,
			"count":4,
			"type":"VEC3"
		},
		{
			"bufferView":9,
			"componentType":5126,
			"count":4,
			"type":"VEC2"
		},
		{
			"bufferView":10,
			"componentType":5123,
			"count":6,
			"type":"SCALAR"
		},
		{
			"bufferView":11,
			"componentType":5126,
			"count":91,
			"max":[
				3.033333333333333
			],
			"min":[
				0.03333333333333333
			],
			"type":"SCALAR"
		},
		{
			"bufferView":12,
			"componentType":5126,
			"count":91,
			"type":"VEC3"
		},
		{
			"bufferView":13,
			"componentType":5126,
			"count":91,
			"type":"VEC4"
		},
		{
			"bufferView":14,
			"componentType":5126,
			"count":2,
			"max":[
				3.033333333333333
			],
			"min":[
				0.03333333333333333
			],
			"type":"SCALAR"
		},
		{
			"bufferView":15,
			"componentType":5126,
			"count":2,
			"type":"VEC3"
		},
		{
			"bufferView":16,
			"componentType":5126,
			"count":2,
			"type":"VEC3"
		},
		{
			"bufferView":17,
			"componentType":5126,
			"count":91,
			"type":"VEC4"
		},
		{
			"bufferView":18,
			"componentType":5126,
			"count":2,
			"type":"VEC3"
		},
		{
			"bufferView":19,
			"componentType":5126,
			"count":2,
			"type":"VEC3"
		},
		{
			"bufferView":20,
			"componentType":5126,
			"count":91,
			"type":"VEC4"
		},
		{
			"bufferView":21,
			"componentType":5126,
			"count":2,
			"type":"VEC3"
		},
		{
			"bufferView":22,
			"componentType":5126,
			"count":2,
			"type":"VEC3"
		},
		{
			"bufferView":23,
			"componentType":5126,
			"count":91,
			"type":"VEC4"
		},
		{
			"bufferView":24,
			"componentType":5126,
			"count":2,
			"type":"VEC3"
		},
		{
			"bufferView":25,
			"componentType":5126,
			"count":2,
			"type":"VEC3"
		},
		{
			"bufferView":26,
			"componentType":5126,
			"count":91,
			"type":"VEC4"
		},
		{
			"bufferView":27,
			"componentType":5126,
			"count":2,
			"type":"VEC3"
		},
		{
			"bufferView":28,
			"componentType":5126,
			"count":2,
			"type":"VEC3"
		},
		{
			"bufferView":29,
			"componentType":5126,
			"count":91,
			"type":"VEC4"
		},
		{
			"bufferView":30,
			"componentType":5126,
			"count":2,
			"type":"VEC3"
		},
		{
			"bufferView":31,
			"componentType":5126,
			"count":2,
			"type":"VEC3"
		},
		{
			"bufferView":32,
			"componentType":5126,
			"count":91,
			"type":"VEC4"
		},
		{
			"bufferView":33,
			"componentType":5126,
			"count":2,
			"type":"VEC3"
		},
		{
			"bufferView":34,
			"componentType":5126,
			"count":2,
			"type":"VEC3"
		},
		{
			"bufferView":35,
			"componentType":5126,
			"count":91,
			"type":"VEC4"
		},
		{
			"bufferView":36,
			"componentType":5126,
			"count":2,
			"type":"VEC3"
		},
		{
			"bufferView":37,
			"componentType":5126,
			"count":2,
			"type":"VEC3"
		},
		{
			"bufferView":38,
			"componentType":5126,
			"count":91,
			"type":"VEC4"
		},
		{
			"bufferView":39,
			"componentType":5126,
			"count":2,
			"type":"VEC3"
		},
		{
			"bufferView":40,
			"componentType":5126,
			"count":2,
			"type":"VEC3"
		},
		{
			"bufferView":41,
			"componentType":5126,
			"count":91,
			"type":"VEC4"
		},
		{
			"bufferView":42,
			"componentType":5126,
			"count":2,
			"type":"VEC3"
		},
		{
			"bufferView":43,
			"componentType":5126,
			"count":2,
			"type":"VEC3"
		},
		{
			"bufferView":44,
			"componentType":5126,
			"count":91,
			"type":"VEC4"
		},
		{
			"bufferView":45,
			"componentType":5126,
			"count":2,
			"type":"VEC3"
		},
		{
			"bufferView":46,
			"componentType":5126,
			"count":91,
			"type":"VEC3"
		},
		{
			"bufferView":47,
			"componentType":5126,
			"count":91,
			"type":"VEC4"
		},
		{
			"bufferView":48,
			"componentType":5126,
			"count":2,
			"type":"VEC3"
		},
		{
			"bufferView":49,
			"componentType":5126,
			"count":91,
			"type":"VEC3"
		},
		{
			"bufferView":50,
			"componentType":5126,
			"count":91,
			"type":"VEC4"
		},
		{
			"bufferView":51,
			"componentType":5126,
			"count":2,
			"type":"VEC3"
		}
	],
	"bufferViews":[
		{
			"buffer":0,
			"byteLength":16008,
			"byteOffset":0,
			"target":34962
		},
		{
			"buffer":0,
			"byteLength":16008,
			"byteOffset":16008,
			"target":34962
		},
		{
			"buffer":0,
			"byteLength":10672,
			"byteOffset":32016,
			"target":34962
		},
		{
			"buffer":0,
			"byteLength":5336,
			"byteOffset":42688,
			"target":34962
		},
		{
			"buffer":0,
			"byteLength":21344,
			"byteOffset":48024,
			"target":34962
		},
		{
			"buffer":0,
			"byteLength":9876,
			"byteOffset":69368,
			"target":34963
		},
		{
			"buffer":0,
			"byteLength":896,
			"byteOffset":79244
		},
		{
			"buffer":0,
			"byteLength":48,
			"byteOffset":80140,
			"target":34962
		},
		{
			"buffer":0,
			"byteLength":48,
			"byteOffset":80188,
			"target":34962
		},
		{
			"buffer":0,
			"byteLength":32,
			"byteOffset":80236,
			"target":34962
		},
		{
			"buffer":0,
			"byteLength":12,
			"byteOffset":80268,
			"target":34963
		},
		{
			"buffer":0,
			"byteLength":364,
			"byteOffset":80280
		},
		{
			"buffer":0,
			"byteLength":1092,
			"byteOffset":80644
		},
		{
			"buffer":0,
			"byteLength":1456,
			"byteOffset":81736
		},
		{
			"buffer":0,
			"byteLength":8,
			"byteOffset":83192
		},
		{
			"buffer":0,
			"byteLength":24,
			"byteOffset":83200
		},
		{
			"buffer":0,
			"byteLength":24,
			"byteOffset":83224
		},
		{
			"buffer":0,
			"byteLength":1456,
			"byteOffset":83248
		},
		{
			"buffer":0,
			"byteLength":24,
			"byteOffset":84704
		},
		{
			"buffer":0,
			"byteLength":24,
			"byteOffset":84728
		},
		{
			"buffer":0,
			"byteLength":1456,
			"byteOffset":84752
		},
		{
			"buffer":0,
			"byteLength":24,
			"byteOffset":86208
		},
		{
			"buffer":0,
			"byteLength":24,
			"byteOffset":86232
		},
		{
			"buffer":0,
			"byteLength":1456,
			"byteOffset":86256
		},
		{
			"buffer":0,
			"byteLength":24,
			"byteOffset":87712
		},
		{
			"buffer":0,
			"byteLength":24,
			"byteOffset":87736
		},
		{
			"buffer":0,
			"byteLength":1456,
			"byteOffset":87760
		},
		{
			"buffer":0,
			"byteLength":24,
			"byteOffset":89216
		},
		{
			"buffer":0,
			"byteLength":24,
			"byteOffset":89240
		},
		{
			"buffer":0,
			"byteLength":1456,
			"byteOffset":89264
		},
		{
			"buffer":0,
			"byteLength":24,
			"byteOffset":90720
		},
		{
			"buffer":0,
			"byteLength":24,
			"byteOffset":90744
		},
		{
			"buffer":0,
			"byteLength":1456,
			"byteOffset":90768
		},
		{
			"buffer":0,
			"byteLength":24,
			"byteOffset":92224
		},
		{
			"buffer":0,
			"byteLength":24,
			"byteOffset":92248
		},
		{
			"buffer":0,
			"byteLength":1456,
			"byteOffset":92272
		},
		{
			"buffer":0,
			"byteLength":24,
			"byteOffset":93728
		},
		{
			"buffer":0,
			"byteLength":24,
			"byteOffset":93752
		},
		{
			"buffer":0,
			"byteLength":1456,
			"byteOffset":93776
		},
		{
			"buffer":0,
			"byteLength":24,
			"byteOffset":95232
		},
		{
			"buffer":0,
			"byteLength":24,
			"byteOffset":95256
		},
		{
			"buffer":0,
			"byteLength":1456,
			"byteOffset":95280
		},
		{
			"buffer":0,
			"byteLength":24,
			"byteOffset":96736
		},
		{
			"buffer":0,
			"byteLength":24,
			"byteOffset":96760
		},
		{
			"buffer":0,
			"byteLength":1456,
			"byteOffset":96784
		},
		{
			"buffer":0,
			"byteLength":24,
			"byteOffset":98240
		},
		{
			"buffer":0,
			"byteLength":1092,
			"byteOffset":98264
		},
		{
			"buffer":0,
			"byteLength":1456,
			"byteOffset":99356
		},
		{
			"buffer":0,
			"byteLength":24,
			"byteOffset":100812
		},
		{
			"buffer":0,
			"byteLength":1092,
			"byteOffset":100836
		},
		{
			"buffer":0,
			"byteLength":1456,
			"byteOffset":101928
		},
		{
			"buffer":0,
			"byteLength":24,
			"byteOffset":103384
		}
	],
	"samplers":[
		{
			"magFilter":9729,
			"minFilter":9987
		}
	],
	"buffers":[
		{
			"byteLength":103408,
			"uri":"anim.bin"
		}
	]
}
